<?xml version="1.0" encoding="UTF-8" standalone="no"?>
<svg width="72px" height="72px" viewBox="0 0 72 72" version="1.1" xmlns="http://www.w3.org/2000/svg" xmlns:xlink="http://www.w3.org/1999/xlink" xmlns:sketch="http://www.bohemiancoding.com/sketch/ns">
    <title>notify</title>
    <description>Created with Sketch (http://www.bohemiancoding.com/sketch)</description>
    <defs></defs>
    <g id="Page 1" fill="rgb(206,206,206)" fill-rule="evenodd">
        <g id="banner off" fill="rgb(0,0,0)">
            <path d="M47.9940603,49 L60.0059397,49 C61.1054862,49 62,49.8952581 62,50.999615 L62,57.000385 C62,58.1125667 61.1072288,59 60.0059397,59 L47.9940603,59 C46.8945138,59 46,58.1047419 46,57.000385 L46,50.999615 C46,49.8874333 46.8927712,49 47.9940603,49 Z M49.0024733,51 C48.4488226,51 48,51.4509752 48,51.990778 L48,56.009222 C48,56.5564136 48.455761,57 49.0024733,57 L58.9975267,57 C59.5511774,57 60,56.5490248 60,56.009222 L60,51.990778 C60,51.4435864 59.544239,51 58.9975267,51 Z M49.0024733,51" id="Rectangle 1"></path>
        </g>
        <g id="banner on" fill="rgb(0,0,0)">
            <path d="M47.9940603,13 L60.0059397,13 C61.1054862,13 62,13.8952581 62,14.999615 L62,21.000385 C62,22.1125667 61.1072288,23 60.0059397,23 L47.9940603,23 C46.8945138,23 46,22.1047419 46,21.000385 L46,14.999615 C46,13.8874333 46.8927712,13 47.9940603,13 Z M54,15 L54,17 L60,17 L60,15 Z M50,20 C51.1045696,20 52,19.1045696 52,18 C52,16.8954304 51.1045696,16 50,16 C48.8954304,16 48,16.8954304 48,18 C48,19.1045696 48.8954304,20 50,20 Z M54,19 L54,21 L60,21 L60,19 Z M54,19" id="Rectangle 1"></path>
        </g>
        <g id="audio" fill="rgb(0,0,0)">
            <path d="M14,52 L17,52 L21,48 L21,60 L17,56 L14,56 L14,52" id="OFF"></path>
            <path d="M11,16 L14,16 L18,12 L18,24 L14,20 L11,20 L11,16 M23,13 L23,23 L24,23 L24,13 L23,13 M21,15 L21,21 L22,21 L22,15 L21,15" id="ON"></path>
        </g>
    </g>
</svg>